<?xml version="1.0" encoding="utf-8"?>
<!-- Generator: Adobe Illustrator 16.0.0, SVG Export Plug-In . SVG Version: 6.00 Build 0)  -->
<!DOCTYPE svg PUBLIC "-//W3C//DTD SVG 1.1//EN" "http://www.w3.org/Graphics/SVG/1.1/DTD/svg11.dtd">
<svg version="1.1" xmlns="http://www.w3.org/2000/svg" xmlns:xlink="http://www.w3.org/1999/xlink" x="0px" y="0px"
	 width="228.25px" height="30.876px" viewBox="0 0 228.25 30.876" enable-background="new 0 0 228.25 30.876" xml:space="preserve">
<g id="Background_xA0_Image_1_" display="none">
	
		<image display="inline" overflow="visible" width="1920" height="1080" id="Background_xA0_Image" xlink:href="3CCFC030.jpg"  transform="matrix(0.24 0 0 0.24 -99.8164 46.3252)">
	</image>
</g>
<g id="comp_3_1_">
	<g id="ohioduieval.com">
		<g>
			<path fill="#59595A" d="M22.158,6.549c0.363-0.063,0.736-0.106,1.12-0.128c0.384-0.021,0.757-0.031,1.12-0.031
				c0.362,0,0.736,0.01,1.12,0.031c0.384,0.021,0.768,0.064,1.152,0.128v8.8c0.149-0.191,0.347-0.421,0.592-0.688
				s0.549-0.523,0.912-0.768c0.363-0.246,0.8-0.453,1.312-0.625c0.512-0.17,1.099-0.256,1.76-0.256c1.834,0,3.227,0.512,4.176,1.536
				s1.424,2.636,1.424,4.832v10.593c-0.384,0.063-0.768,0.105-1.152,0.127c-0.384,0.021-0.757,0.032-1.12,0.032
				s-0.736-0.011-1.12-0.032c-0.384-0.021-0.768-0.063-1.152-0.127v-9.377c0-1.152-0.181-2.037-0.544-2.656
				c-0.363-0.618-0.981-0.928-1.856-0.928c-0.363,0-0.736,0.054-1.12,0.16c-0.384,0.107-0.731,0.314-1.04,0.624
				s-0.565,0.741-0.768,1.296c-0.203,0.555-0.304,1.28-0.304,2.176v8.705c-0.384,0.063-0.768,0.105-1.152,0.127
				c-0.384,0.021-0.758,0.032-1.12,0.032c-0.363,0-0.731-0.011-1.104-0.032c-0.374-0.021-0.752-0.063-1.136-0.127V6.549z"/>
			<path fill="#59595A" d="M40.59,16.853h-2.144c-0.064-0.277-0.112-0.57-0.144-0.879c-0.032-0.31-0.048-0.604-0.048-0.881
				c0-0.576,0.064-1.141,0.192-1.695h6.592V29.94c-0.768,0.129-1.515,0.192-2.24,0.192c-0.704,0-1.44-0.063-2.208-0.192V16.853z
				 M39.918,10.612c-0.128-0.725-0.192-1.439-0.192-2.144c0-0.683,0.064-1.397,0.192-2.144c0.363-0.064,0.752-0.112,1.168-0.145
				c0.416-0.031,0.794-0.048,1.136-0.048c0.362,0,0.757,0.017,1.184,0.048c0.426,0.032,0.821,0.08,1.184,0.145
				c0.064,0.363,0.106,0.72,0.128,1.072c0.021,0.352,0.032,0.709,0.032,1.071c0,0.342-0.011,0.694-0.032,1.056
				c-0.021,0.363-0.064,0.727-0.128,1.088c-0.363,0.064-0.752,0.107-1.168,0.129s-0.805,0.031-1.168,0.031
				c-0.341,0-0.725-0.01-1.152-0.031S40.281,10.677,39.918,10.612z"/>
			<path fill="#59595A" d="M55.246,30.325c-1.344,0-2.512-0.219-3.504-0.656c-0.992-0.438-1.813-1.045-2.464-1.824
				c-0.651-0.778-1.141-1.69-1.472-2.736c-0.331-1.045-0.496-2.176-0.496-3.392s0.165-2.356,0.496-3.424
				c0.331-1.066,0.821-1.989,1.472-2.769c0.651-0.777,1.472-1.392,2.464-1.84c0.992-0.447,2.16-0.672,3.504-0.672
				c1.344,0,2.517,0.225,3.52,0.672c1.002,0.448,1.834,1.063,2.496,1.84c0.661,0.779,1.152,1.702,1.472,2.769
				c0.32,1.067,0.48,2.208,0.48,3.424s-0.16,2.347-0.48,3.392c-0.32,1.046-0.811,1.958-1.472,2.736
				c-0.662,0.779-1.494,1.387-2.496,1.824C57.763,30.106,56.59,30.325,55.246,30.325z M55.246,26.869
				c1.194,0,2.053-0.442,2.576-1.328c0.522-0.886,0.784-2.16,0.784-3.824s-0.261-2.938-0.784-3.823
				c-0.523-0.886-1.382-1.328-2.576-1.328c-1.173,0-2.021,0.442-2.544,1.328c-0.523,0.885-0.784,2.159-0.784,3.823
				s0.261,2.938,0.784,3.824C53.225,26.427,54.073,26.869,55.246,26.869z"/>
			<path fill="#1870B9" d="M75.438,6.549c0.384-0.063,0.762-0.106,1.136-0.128c0.373-0.021,0.741-0.031,1.104-0.031
				s0.736,0.01,1.12,0.031s0.768,0.064,1.152,0.128v22.849c-1.003,0.299-2.021,0.527-3.056,0.688c-1.035,0.16-2.288,0.24-3.76,0.24
				c-1.131,0-2.213-0.155-3.248-0.465c-1.035-0.309-1.947-0.799-2.736-1.471c-0.79-0.673-1.414-1.541-1.872-2.609
				c-0.459-1.066-0.688-2.367-0.688-3.903c0-1.216,0.197-2.362,0.592-3.44c0.395-1.076,0.96-2.01,1.696-2.8
				c0.736-0.788,1.626-1.413,2.672-1.872c1.045-0.458,2.208-0.688,3.488-0.688c0.384,0,0.784,0.016,1.2,0.048s0.816,0.102,1.2,0.208
				V6.549z M75.438,16.821c-0.427-0.107-0.773-0.176-1.04-0.209c-0.267-0.031-0.603-0.047-1.008-0.047
				c-0.704,0-1.317,0.144-1.84,0.432c-0.523,0.288-0.955,0.672-1.296,1.152c-0.342,0.479-0.592,1.045-0.752,1.695
				c-0.16,0.651-0.24,1.328-0.24,2.032c0,0.875,0.106,1.616,0.32,2.224c0.213,0.608,0.506,1.094,0.88,1.457
				c0.373,0.362,0.816,0.623,1.328,0.783c0.512,0.16,1.066,0.24,1.664,0.24c0.363,0,0.693-0.016,0.992-0.049
				c0.298-0.031,0.629-0.1,0.992-0.207V16.821z"/>
			<path fill="#1870B9" d="M82.766,13.397c0.768-0.129,1.525-0.192,2.272-0.192c0.747,0,1.504,0.063,2.272,0.192v8.768
				c0,0.875,0.069,1.595,0.208,2.16c0.138,0.565,0.352,1.014,0.64,1.344c0.288,0.331,0.645,0.565,1.072,0.704
				c0.426,0.139,0.928,0.208,1.504,0.208c0.789,0,1.451-0.074,1.984-0.225V13.397c0.768-0.129,1.515-0.192,2.24-0.192
				c0.747,0,1.504,0.063,2.272,0.192v15.903c-0.683,0.235-1.584,0.464-2.704,0.688c-1.12,0.224-2.288,0.336-3.504,0.336
				c-1.088,0-2.133-0.086-3.136-0.256c-1.003-0.171-1.883-0.533-2.64-1.088c-0.758-0.555-1.36-1.365-1.808-2.433
				c-0.448-1.066-0.672-2.485-0.672-4.256V13.397z"/>
			<path fill="#1870B9" d="M100.973,16.853h-2.144c-0.064-0.277-0.112-0.57-0.144-0.879c-0.032-0.31-0.048-0.604-0.048-0.881
				c0-0.576,0.064-1.141,0.192-1.695h6.592V29.94c-0.768,0.129-1.515,0.192-2.24,0.192c-0.704,0-1.44-0.063-2.208-0.192V16.853z
				 M100.301,10.612c-0.128-0.725-0.192-1.439-0.192-2.144c0-0.683,0.064-1.397,0.192-2.144c0.363-0.064,0.752-0.112,1.168-0.145
				c0.416-0.031,0.794-0.048,1.136-0.048c0.362,0,0.757,0.017,1.184,0.048c0.426,0.032,0.821,0.08,1.184,0.145
				c0.064,0.363,0.106,0.72,0.128,1.072c0.021,0.352,0.032,0.709,0.032,1.071c0,0.342-0.011,0.694-0.032,1.056
				c-0.021,0.363-0.064,0.727-0.128,1.088c-0.363,0.064-0.752,0.107-1.168,0.129s-0.805,0.031-1.168,0.031
				c-0.341,0-0.725-0.01-1.152-0.031S100.664,10.677,100.301,10.612z"/>
			<path fill="#59595A" d="M112.237,23.062c0.085,1.279,0.533,2.207,1.344,2.783c0.811,0.576,1.877,0.864,3.2,0.864
				c0.725,0,1.467-0.069,2.224-0.208c0.757-0.139,1.477-0.336,2.16-0.592c0.234,0.427,0.437,0.939,0.608,1.535
				c0.17,0.598,0.267,1.238,0.288,1.92c-1.664,0.641-3.542,0.961-5.632,0.961c-1.536,0-2.854-0.214-3.952-0.641
				c-1.099-0.426-1.995-1.018-2.688-1.775c-0.694-0.758-1.206-1.658-1.536-2.704c-0.331-1.045-0.496-2.187-0.496-3.425
				c0-1.215,0.17-2.356,0.512-3.424c0.341-1.066,0.848-1.994,1.52-2.783c0.672-0.789,1.504-1.413,2.496-1.873
				c0.992-0.458,2.149-0.688,3.472-0.688c1.152,0,2.176,0.203,3.072,0.608c0.896,0.405,1.658,0.96,2.288,1.664
				s1.104,1.542,1.424,2.512c0.32,0.972,0.48,2.011,0.48,3.12c0,0.405-0.016,0.806-0.048,1.199
				c-0.032,0.396-0.069,0.711-0.112,0.945H112.237z M118.733,19.894c-0.043-1.024-0.326-1.852-0.848-2.48
				c-0.523-0.629-1.253-0.944-2.192-0.944c-1.067,0-1.877,0.3-2.432,0.896c-0.555,0.598-0.885,1.44-0.992,2.529H118.733z"/>
			<path fill="#1870B8" d="M122.605,13.429c0.512-0.106,2.062-0.236,2.604,0.118s5.449,8.441,6.037,8.441
				S142.283,1.273,143.183,0.63s1.527-0.252,1.527-0.252L133.421,29.94c-0.405,0.064-0.832,0.107-1.28,0.129
				c-0.448,0.021-0.821,0.031-1.12,0.031c-0.319,0-0.683-0.011-1.088-0.031c-0.405-0.021-0.789-0.075-1.151-0.16L122.605,13.429z"/>
			<path fill="#59595A" d="M149.07,19.062c0-0.513-0.086-0.929-0.256-1.248c-0.171-0.32-0.405-0.571-0.704-0.752
				c-0.299-0.182-0.667-0.305-1.104-0.369c-0.438-0.063-0.923-0.096-1.456-0.096c-1.151,0-2.379,0.225-3.68,0.672
				c-0.299-0.555-0.522-1.076-0.672-1.568c-0.149-0.49-0.224-1.076-0.224-1.76c0.938-0.319,1.877-0.555,2.815-0.703
				c0.938-0.149,1.813-0.225,2.624-0.225c2.219,0,3.952,0.533,5.2,1.6c1.248,1.067,1.872,2.773,1.872,5.121v9.6
				c-0.747,0.234-1.653,0.459-2.72,0.672c-1.067,0.213-2.272,0.32-3.616,0.32c-1.088,0-2.086-0.096-2.992-0.288
				c-0.907-0.192-1.686-0.513-2.336-0.96c-0.651-0.448-1.152-1.024-1.504-1.729c-0.353-0.703-0.528-1.568-0.528-2.592
				s0.219-1.883,0.656-2.576c0.437-0.693,1.002-1.248,1.696-1.664c0.692-0.416,1.466-0.715,2.319-0.896s1.707-0.272,2.561-0.272
				c0.618,0,1.301,0.032,2.048,0.096V19.062z M149.07,22.356c-0.256-0.042-0.533-0.08-0.832-0.111
				c-0.299-0.032-0.565-0.049-0.8-0.049c-1.046,0-1.872,0.188-2.48,0.561c-0.607,0.373-0.912,0.977-0.912,1.809
				c0,0.555,0.117,0.98,0.353,1.279c0.234,0.299,0.517,0.518,0.848,0.656s0.683,0.225,1.056,0.256
				c0.373,0.032,0.699,0.048,0.977,0.048c0.32,0,0.64-0.026,0.96-0.079c0.32-0.054,0.597-0.102,0.832-0.145V22.356z"/>
			<path fill="#59595A" d="M156.109,6.549c0.768-0.128,1.524-0.192,2.271-0.192c0.726,0,1.473,0.064,2.24,0.192v16.8
				c0,0.662,0.037,1.195,0.112,1.6c0.074,0.406,0.191,0.721,0.352,0.945c0.16,0.223,0.368,0.379,0.624,0.463
				c0.256,0.086,0.576,0.129,0.96,0.129c0.171,0,0.357-0.011,0.561-0.032c0.202-0.021,0.399-0.054,0.592-0.097
				c0.234,0.875,0.352,1.729,0.352,2.561c0,0.171,0,0.325,0,0.464c0,0.14-0.021,0.294-0.063,0.464
				c-0.342,0.107-0.752,0.182-1.232,0.225c-0.479,0.042-0.923,0.063-1.328,0.063c-1.643,0-2.96-0.453-3.952-1.36
				c-0.991-0.906-1.487-2.383-1.487-4.432V6.549z"/>
			<path fill="#59595A" d="M165.357,29.94c-0.129-0.789-0.192-1.567-0.192-2.336c0-0.768,0.063-1.557,0.192-2.367
				c0.788-0.129,1.567-0.192,2.336-0.192c0.768,0,1.557,0.063,2.367,0.192c0.128,0.811,0.192,1.59,0.192,2.336
				c0,0.789-0.064,1.578-0.192,2.367c-0.811,0.129-1.589,0.192-2.336,0.192C166.935,30.133,166.145,30.069,165.357,29.94z"/>
			<path fill="#59595A" d="M184.396,26.037c0.256,0.427,0.47,0.923,0.641,1.487c0.17,0.566,0.256,1.232,0.256,2
				c-0.854,0.342-1.653,0.561-2.4,0.656s-1.525,0.145-2.336,0.145c-1.387,0-2.592-0.219-3.616-0.656
				c-1.023-0.438-1.872-1.04-2.544-1.809c-0.672-0.768-1.179-1.68-1.52-2.735c-0.342-1.056-0.513-2.202-0.513-3.44
				c0-1.216,0.165-2.346,0.496-3.392c0.331-1.045,0.832-1.962,1.504-2.752c0.673-0.789,1.51-1.408,2.513-1.856
				c1.002-0.447,2.165-0.672,3.487-0.672c0.47,0,0.901,0.012,1.297,0.032c0.395,0.021,0.772,0.063,1.136,0.128
				c0.362,0.064,0.725,0.149,1.088,0.256c0.362,0.107,0.768,0.246,1.216,0.416c0,0.491-0.063,1.04-0.191,1.648
				c-0.129,0.607-0.331,1.189-0.608,1.744c-0.64-0.213-1.2-0.357-1.68-0.433c-0.48-0.074-1.03-0.112-1.648-0.112
				c-1.323,0-2.32,0.433-2.992,1.297c-0.672,0.863-1.008,2.096-1.008,3.695c0,1.729,0.362,2.987,1.088,3.776
				c0.726,0.79,1.707,1.185,2.944,1.185c0.32,0,0.613-0.006,0.88-0.017s0.528-0.037,0.784-0.08c0.256-0.042,0.517-0.106,0.784-0.192
				C183.718,26.272,184.034,26.165,184.396,26.037z"/>
			<path fill="#59595A" d="M193.74,30.325c-1.344,0-2.512-0.219-3.504-0.656s-1.813-1.045-2.464-1.824
				c-0.651-0.778-1.142-1.69-1.473-2.736c-0.331-1.045-0.496-2.176-0.496-3.392s0.165-2.356,0.496-3.424
				c0.331-1.066,0.821-1.989,1.473-2.769c0.65-0.777,1.472-1.392,2.464-1.84c0.992-0.447,2.16-0.672,3.504-0.672
				s2.517,0.225,3.52,0.672c1.003,0.448,1.835,1.063,2.496,1.84c0.661,0.779,1.152,1.702,1.473,2.769
				c0.319,1.067,0.479,2.208,0.479,3.424s-0.16,2.347-0.479,3.392c-0.32,1.046-0.812,1.958-1.473,2.736
				c-0.661,0.779-1.493,1.387-2.496,1.824S195.083,30.325,193.74,30.325z M193.74,26.869c1.194,0,2.053-0.442,2.576-1.328
				c0.522-0.886,0.784-2.16,0.784-3.824s-0.262-2.938-0.784-3.823c-0.523-0.886-1.382-1.328-2.576-1.328
				c-1.174,0-2.021,0.442-2.544,1.328c-0.523,0.885-0.784,2.159-0.784,3.823s0.261,2.938,0.784,3.824
				C191.718,26.427,192.566,26.869,193.74,26.869z"/>
			<path fill="#59595A" d="M204.011,13.397c0.298-0.064,0.597-0.112,0.896-0.145s0.629-0.048,0.992-0.048
				c0.362,0,0.683,0.016,0.96,0.048s0.565,0.08,0.864,0.145c0.063,0.106,0.122,0.261,0.176,0.463
				c0.053,0.203,0.101,0.416,0.145,0.641c0.042,0.225,0.079,0.443,0.111,0.656s0.059,0.395,0.08,0.543
				c0.171-0.319,0.395-0.639,0.672-0.959s0.608-0.608,0.992-0.864s0.816-0.464,1.296-0.624c0.48-0.16,1.019-0.24,1.616-0.24
				c2.581,0,4.234,0.982,4.96,2.944c0.427-0.789,1.029-1.478,1.808-2.063c0.779-0.587,1.766-0.881,2.96-0.881
				c1.877,0,3.259,0.518,4.145,1.553c0.885,1.035,1.328,2.65,1.328,4.848V29.94c-0.769,0.129-1.525,0.192-2.272,0.192
				s-1.504-0.063-2.271-0.192v-9.344c0-1.152-0.145-2.037-0.433-2.656c-0.288-0.618-0.869-0.928-1.744-0.928
				c-0.362,0-0.72,0.054-1.071,0.16c-0.353,0.107-0.672,0.305-0.96,0.592c-0.288,0.288-0.523,0.693-0.704,1.217
				c-0.182,0.522-0.272,1.199-0.272,2.031v8.928c-0.768,0.129-1.525,0.192-2.271,0.192c-0.747,0-1.504-0.063-2.272-0.192v-9.344
				c0-1.152-0.144-2.037-0.432-2.656c-0.288-0.618-0.87-0.928-1.744-0.928c-0.363,0-0.726,0.054-1.088,0.16
				c-0.363,0.107-0.688,0.314-0.977,0.624c-0.287,0.31-0.517,0.741-0.688,1.296s-0.256,1.28-0.256,2.176v8.672
				c-0.769,0.129-1.525,0.192-2.272,0.192s-1.504-0.063-2.271-0.192V13.397z"/>
		</g>
		<g>
			<path fill="#5A5A5A" d="M10.2,30.709c-1.728,0-3.222-0.299-4.48-0.896c-1.259-0.598-2.294-1.424-3.104-2.48
				c-0.811-1.056-1.414-2.304-1.808-3.744c-0.395-1.439-0.592-3.013-0.592-4.72c0-1.706,0.197-3.29,0.592-4.752
				c0.395-1.461,0.997-2.725,1.808-3.792C3.426,9.259,4.46,8.427,5.72,7.83c1.258-0.597,2.752-0.896,4.48-0.896
				s3.221,0.299,4.48,0.896c1.258,0.598,2.293,1.43,3.104,2.496c0.811,1.067,1.413,2.331,1.808,3.792
				c0.395,1.462,0.592,3.046,0.592,4.752c0,1.707-0.198,3.28-0.592,4.72c-0.395,1.44-0.997,2.688-1.808,3.744
				c-0.811,1.057-1.846,1.883-3.104,2.48C13.42,30.411,11.928,30.709,10.2,30.709z M10.2,26.806c3.306,0,4.96-2.646,4.96-7.937
				c0-2.645-0.4-4.629-1.2-5.952c-0.8-1.322-2.043-1.983-3.728-1.983c-3.35,0-5.024,2.646-5.024,7.936
				C5.208,24.161,6.872,26.806,10.2,26.806z"/>
		</g>
	</g>
</g>
</svg>
